<svg width="47" height="43" viewBox="0 0 47 43" fill="none" xmlns="http://www.w3.org/2000/svg">
<path d="M23.5 0C10.5181 0 0 9.62298 0 21.5C0 33.377 10.5181 43 23.5 43C36.4819 43 47 33.377 47 21.5C47 9.62298 36.4819 0 23.5 0ZM23.5 38.8387C13.0292 38.8387 4.54839 31.0796 4.54839 21.5C4.54839 11.9204 13.0292 4.16129 23.5 4.16129C33.9708 4.16129 42.4516 11.9204 42.4516 21.5C42.4516 31.0796 33.9708 38.8387 23.5 38.8387ZM20.4677 11.4435V21.5H14.119C13.105 21.5 12.6028 22.6183 13.3135 23.2772L22.6946 31.8599C23.1399 32.2673 23.8601 32.2673 24.3054 31.8599L33.6865 23.2772C34.4067 22.6183 33.895 21.5 32.881 21.5H26.5323V11.4435C26.5323 10.8714 26.0206 10.4032 25.3952 10.4032H21.6048C20.9794 10.4032 20.4677 10.8714 20.4677 11.4435Z" fill="black"/>
</svg>
